HIERARCHY
ROOT Hips
{
  OFFSET 0 0 0
  CHANNELS 6 Xposition Yposition Zposition Zrotation Yrotation Xrotation
  JOINT LeftThigh
  {
    OFFSET 8.409438 0 -5.917753
    CHANNELS 3 Zrotation Yrotation Xrotation
    JOINT LeftLeg
    {
      OFFSET 0 0 -42.358652
      CHANNELS 3 Zrotation Yrotation Xrotation
      JOINT LeftFoot
      {
        OFFSET 0 0 -39.357303
        CHANNELS 3 Zrotation Yrotation Xrotation
      }
    }
  }
  JOINT RightThigh
  {
    OFFSET -8.409438 0 -5.917753
    CHANNELS 3 Zrotation Yrotation Xrotation
    JOINT RightLeg
    {
      OFFSET 0 0 -42.358652
      CHANNELS 3 Zrotation Yrotation Xrotation
      JOINT RightFoot
      {
        OFFSET 0 0 -39.357303
        CHANNELS 3 Zrotation Yrotation Xrotation
      }
    }
  }
  JOINT SpineLow
  {
    OFFSET 0 0 4.719101
    CHANNELS 3 Zrotation Yrotation Xrotation
    JOINT SpineMid
    {
      OFFSET 0 0 12.899191
      CHANNELS 3 Zrotation Yrotation Xrotation
      JOINT Chest
      {
        OFFSET 0 0 12.899191
        CHANNELS 3 Zrotation Yrotation Xrotation
        JOINT LeftShoulder
        {
          OFFSET 7.550562 1.41573 9.438202
          CHANNELS 3 Zrotation Yrotation Xrotation
          JOINT LeftArm
          {
            OFFSET 9.155056 0 4.247191
            CHANNELS 3 Zrotation Yrotation Xrotation
            JOINT LeftForearm
            {
              OFFSET 0 0 25.771955
              CHANNELS 3 Zrotation Yrotation Xrotation
              JOINT LeftHand
              {
                OFFSET 0 0 25.197169
                CHANNELS 3 Zrotation Yrotation Xrotation
              }
            }
          }
        }
        JOINT RightShoulder
        {
          OFFSET -7.550562 1.41573 9.438202
          CHANNELS 3 Zrotation Yrotation Xrotation
          JOINT RightArm
          {
            OFFSET -9.155056 0 4.247191
            CHANNELS 3 Zrotation Yrotation Xrotation
            JOINT RightForearm
            {
              OFFSET 0 0 -25.771955
              CHANNELS 3 Zrotation Yrotation Xrotation
              JOINT RightHand
              {
                OFFSET 0 0 -25.197169
                CHANNELS 3 Zrotation Yrotation Xrotation
              }
            }
          }
        }
        JOINT Neck
        {
          OFFSET 0 0 15.101124
          CHANNELS 3 Zrotation Yrotation Xrotation
          JOINT Head
          {
            OFFSET 0 0 11.325843
            CHANNELS 3 Zrotation Yrotation Xrotation
            End Site
            {
              OFFSET 0 0 14.157303
            }
          }
        }
      }
    }
  }
}
MOTION
Frames: 11
Frame Time: 0.0
0.0  93.25843  0.0  -7.428359  -17.190428  -83.068081  17.82239  -18.520632  -4.787746  -0.096023  -0.215929  9.453784  12.725488  2.619766  5.249347  2.065053  -1.594389  -12.497793  -10.166625  7.025853  6.23775  4.544067  2.214697  0.864672  -2.12282  -2.037131  -0.927479  -5.736102  -5.643996  -2.35912  -5.736101  -5.643996  -2.35912  -14.648398  -11.565732  10.86316  -46.789713  52.800028  -2.832045  -8.310911  -52.817583  92.08123  123.993495  33.018428  16.589801  -11.308981  -3.078112  21.861434  65.594766  14.581021  58.501627  -24.192815  -2.212037  -112.439469  71.432404  -8.693454  -19.181054  10.861993  2.987726  5.921629  8.116596  2.347167  4.388715  
0.0  93.25843  0.0  -8.478887  -13.487059  -83.554166  16.115081  -19.957358  -4.749121  -0.797354  -0.465783  8.85789  11.761045  2.970028  4.863631  0.908344  -2.409582  -11.798798  -10.96906  6.912956  6.818917  3.904204  2.303103  0.74355  -2.603216  -2.323276  -0.932237  -7.045189  -6.441492  -2.30094  -7.045189  -6.441493  -2.30094  -11.792808  -12.07376  11.996151  -42.880222  50.851232  3.868844  0.541342  -53.833343  80.791842  122.958137  32.857644  19.119619  -11.940929  -1.401338  21.696329  60.914468  12.788215  57.919021  -23.062677  -2.177621  -113.187832  70.39354  -8.889761  -19.909131  10.572033  3.10175  6.217859  7.896488  2.435018  4.61019  
0.0  93.25843  0.0  -8.412418  -9.544177  -84.479021  13.257712  -20.35586  -4.009472  -0.849383  -0.737562  8.3264  11.406382  2.825949  4.70855  -1.015988  -2.311987  -10.873796  -11.94591  6.97571  7.055321  3.911891  2.321569  0.779279  -3.235841  -2.493892  -0.93906  -8.775826  -6.927548  -2.234773  -8.775826  -6.927548  -2.234772  -10.160103  -12.711647  12.042811  -37.705219  49.674046  9.829347  8.547139  -52.373622  70.782675  121.922748  32.106231  24.445493  -12.624176  0.762128  21.300093  57.892046  10.901606  57.203389  -22.552401  -2.304955  -113.511224  69.986831  -8.890383  -20.626861  10.655644  3.468745  6.548398  7.953184  2.717054  4.851004  
0.0  93.25843  0.0  -8.345235  -6.011163  -84.871377  10.753236  -20.543569  -3.726166  -0.675713  -1.022831  7.90588  10.957484  2.679523  4.513385  -2.890523  -2.205975  -10.457502  -12.478851  7.004085  7.291434  3.958982  2.371709  0.840228  -3.848663  -2.658302  -0.931181  -10.455672  -7.392344  -2.122229  -10.455672  -7.392344  -2.122229  -7.606952  -13.65055  11.364244  -34.623098  48.174306  14.403662  15.875133  -49.141155  62.191496  119.573322  31.220623  28.634797  -12.417253  1.361349  20.021446  55.601856  8.781482  57.444911  -22.628777  -1.957415  -113.572179  69.289465  -8.878965  -19.671135  10.995765  3.890177  6.579604  8.202863  3.037553  4.864587  
0.0  93.25843  0.0  -8.481073  -4.46921  -84.82972  10.438207  -20.592562  -3.948653  -0.794375  -1.343579  7.569197  10.587638  2.607303  4.431694  -3.037571  -2.17818  -10.469375  -12.76393  7.035018  7.548227  3.897784  2.395137  0.844955  -4.015569  -2.743023  -0.950769  -10.910724  -7.630933  -2.143058  -10.910724  -7.630933  -2.143058  -5.742467  -15.187006  11.008414  -32.254532  47.746445  18.086891  19.783731  -46.544556  56.342235  116.224846  29.782537  30.067412  -13.422809  1.358245  19.23808  55.71465  6.745733  57.316886  -23.034419  -2.122285  -113.093439  67.647319  -8.723418  -17.687455  10.899471  4.045004  6.49424  8.129268  3.151136  4.79822  
0.0  93.25843  0.0  -8.427419  -3.392567  -84.414168  10.552584  -20.352964  -4.600005  -1.180384  -1.564383  7.314223  9.821318  2.484188  3.965235  -3.003679  -2.047284  -10.805019  -12.957514  7.08945  7.688742  3.716013  2.343369  0.850076  -3.833532  -2.668632  -1.256377  -10.376959  -7.470762  -3.012251  -10.376959  -7.470761  -3.012251  -6.494342  -16.726926  12.520344  -31.423177  47.640444  19.591488  19.920826  -44.765451  54.720128  114.059212  29.154999  30.25455  -15.974817  0.522918  19.723784  56.134618  5.48128  57.347165  -22.113642  -2.855959  -112.53416  67.08601  -8.738476  -15.181487  9.814733  3.769586  7.072214  7.315893  2.942092  5.243239  
0.0  93.25843  0.0  -8.151643  -2.520347  -84.373536  10.306284  -20.016015  -4.822906  -1.415971  -1.646324  7.275964  9.872583  2.444821  4.09333  -3.36455  -1.737655  -10.831456  -13.078985  7.095901  7.778902  3.481489  2.3349  0.857372  -3.756273  -2.595216  -1.404294  -10.150161  -7.289977  -3.436867  -10.150161  -7.289977  -3.436866  -6.956585  -17.421732  13.60416  -31.197676  47.447487  20.206378  17.763693  -44.050519  55.533316  113.620151  28.991457  29.681468  -17.257741  0.052735  19.533265  56.940697  4.327814  56.868164  -21.429661  -3.924827  -112.055504  67.933108  -9.115802  -13.296417  9.269365  3.847042  7.424575  6.903835  2.999191  5.509422  
0.0  93.25843  0.0  -7.763995  -2.115393  -84.690906  10.056581  -19.636857  -4.616234  -1.525117  -1.663959  7.361908  9.921612  2.438222  4.20706  -3.953087  -1.350515  -10.60248  -11.22454  7.264054  8.42627  1.545459  1.968443  0.54579  -3.720166  -2.522511  -1.324622  -10.062053  -7.078109  -3.233588  -10.062052  -7.078109  -3.233588  -7.464894  -17.5581  13.374598  -31.859071  47.347406  19.201648  16.225688  -44.73191  57.741766  114.226393  28.550151  29.269091  -17.028029  -0.728867  18.665244  57.603333  3.973809  56.198316  -21.837299  -4.612865  -111.316631  68.80719  -9.878018  -13.376763  9.17884  4.206824  7.358334  6.831493  3.267013  5.454452  
0.0  93.25843  0.0  -7.361098  -1.915233  -84.736993  10.061071  -19.1697  -4.586464  -1.644482  -1.627851  7.496148  9.898567  2.479254  4.244941  -4.935908  -1.078013  -10.683554  -11.217975  7.414261  8.49232  1.598434  1.950128  0.550235  -3.632763  -2.468418  -1.304254  -9.826079  -6.923746  -3.19519  -9.826079  -6.923746  -3.19519  -8.392871  -16.85372  12.811219  -32.794765  47.193789  17.672682  16.042105  -46.247286  59.874886  114.034189  28.644951  28.95513  -17.091119  -1.326007  18.219603  58.523374  5.127002  55.553083  -22.543123  -4.384289  -110.231644  68.015267  -10.519287  -14.335674  9.003647  4.623341  7.518474  6.693297  3.579762  5.56899  
0.0  93.25843  0.0  -7.102794  -1.898433  -84.603619  9.754786  -18.859932  -4.83123  -1.486452  -1.530848  7.848782  10.11961  2.529004  4.392492  -6.169647  -1.049747  -10.950157  -11.119063  7.623442  8.558197  1.767097  1.924535  0.53267  -3.522646  -2.378253  -1.382198  -9.518777  -6.684145  -3.432738  -9.518777  -6.684145  -3.432738  -9.210668  -16.491749  12.464869  -37.89155  45.092502  14.375839  17.355547  -45.225596  62.068866  112.730952  28.609787  29.24676  -17.195351  -1.96314  18.141155  59.576341  6.46478  55.346156  -23.061857  -3.794753  -109.051131  66.760293  -10.815529  -14.88165  8.689706  4.64015  8.040924  6.453883  3.595969  5.962729  
0.0  93.25843  0.0  -6.895278  -2.563954  -84.861803  10.114373  -18.673389  -4.420585  -1.541033  -1.353191  7.94714  10.2164  2.585655  4.440093  -7.061641  -1.01412  -10.84346  -10.805911  7.792013  8.664557  1.931301  1.92334  0.504341  -3.320719  -2.234553  -1.45409  -8.963333  -6.292153  -3.668973  -8.963333  -6.292153  -3.668973  -10.220567  -16.387122  12.488869  -40.184929  45.211486  12.972662  17.032017  -46.262665  64.011947  111.587066  28.633606  29.875734  -16.921811  -2.229721  18.605574  60.648806  7.231596  55.144301  -23.640649  -3.448923  -108.150348  66.078681  -10.979  -15.068553  8.133624  4.300036  8.753566  6.03714  3.34298  6.506148  
